<svg version="1.1" viewBox="0.0 0.0 269.0209973753281 267.92913385826773" fill="none" stroke="none" stroke-linecap="square" stroke-miterlimit="10" xmlns:xlink="http://www.w3.org/1999/xlink" xmlns="http://www.w3.org/2000/svg"><clipPath id="p.0"><path d="m0 0l269.021 0l0 267.92914l-269.021 0l0 -267.92914z" clip-rule="nonzero"/></clipPath><g clip-path="url(#p.0)"><path fill="#000000" fill-opacity="0.0" d="m0 0l269.021 0l0 267.92914l-269.021 0z" fill-rule="evenodd"/><path fill="#ffffff" d="m7.97447 133.95624l0 0c0 -69.88359 56.65184 -126.53543 126.53543 -126.53543l0 0c33.55928 0 65.744064 13.331373 89.47406 37.06137c23.729996 23.73 37.061386 55.914776 37.061386 89.47406l0 0c0 69.88359 -56.651855 126.53543 -126.535446 126.53543l0 0c-69.88359 0 -126.53543 -56.65184 -126.53543 -126.53543z" fill-rule="evenodd"/><path stroke="#000000" stroke-width="8.0" stroke-linejoin="round" stroke-linecap="butt" d="m7.97447 133.95624l0 0c0 -69.88359 56.65184 -126.53543 126.53543 -126.53543l0 0c33.55928 0 65.744064 13.331373 89.47406 37.06137c23.729996 23.73 37.061386 55.914776 37.061386 89.47406l0 0c0 69.88359 -56.651855 126.53543 -126.535446 126.53543l0 0c-69.88359 0 -126.53543 -56.65184 -126.53543 -126.53543z" fill-rule="evenodd"/><path fill="#000000" d="m39.818344 103.657646l64.38654 0l0 -64.386536l60.61123 0l0 64.386536l64.386536 0l0 60.61123l-64.386536 0l0 64.386536l-60.61123 0l0 -64.386536l-64.38654 0z" fill-rule="evenodd"/><path stroke="#000000" stroke-width="3.0" stroke-linejoin="round" stroke-linecap="butt" d="m39.818344 103.657646l64.38654 0l0 -64.386536l60.61123 0l0 64.386536l64.386536 0l0 60.61123l-64.386536 0l0 64.386536l-60.61123 0l0 -64.386536l-64.38654 0z" fill-rule="evenodd"/></g></svg>