<svg version="1.1" viewBox="0.0 0.0 268.8320209973753 266.9133858267717" fill="none" stroke="none" stroke-linecap="square" stroke-miterlimit="10" xmlns:xlink="http://www.w3.org/1999/xlink" xmlns="http://www.w3.org/2000/svg"><clipPath id="p.0"><path d="m0 0l268.83203 0l0 266.9134l-268.83203 0l0 -266.9134z" clip-rule="nonzero"/></clipPath><g clip-path="url(#p.0)"><path fill="#000000" fill-opacity="0.0" d="m0 0l268.83203 0l0 266.9134l-268.83203 0z" fill-rule="evenodd"/><path fill="#ffd966" d="m264.5585 133.4567l-52.51761 18.676498l0 -37.352997zm-38.12671 -92.02708l-23.92247 50.346725l-26.412216 -26.412209zm-92.01503 -38.11466l18.676498 52.517597l-37.352997 0zm-92.02708 38.11466l50.346725 23.934517l-26.4122 26.412209zm-38.114655 92.02708l52.517597 -18.676498l0 37.352997zm38.114655 92.015015l23.934525 -50.33467l26.4122 26.4122zm92.02708 38.12671l-18.676498 -52.517593l37.352997 0zm92.01503 -38.12671l-50.334686 -23.92247l26.412216 -26.4122zm-157.0859 -92.015015l0 0c0 -35.937653 29.133224 -65.07087 65.07087 -65.07087c35.937653 0 65.07086 29.133217 65.07086 65.07087c0 35.937637 -29.13321 65.07086 -65.07086 65.07086c-35.937645 0 -65.07087 -29.133224 -65.07087 -65.07086z" fill-rule="evenodd"/><path stroke="#000000" stroke-width="2.0" stroke-linejoin="round" stroke-linecap="butt" d="m264.5585 133.4567l-52.51761 18.676498l0 -37.352997zm-38.12671 -92.02708l-23.92247 50.346725l-26.412216 -26.412209zm-92.01503 -38.11466l18.676498 52.517597l-37.352997 0zm-92.02708 38.11466l50.346725 23.934517l-26.4122 26.412209zm-38.114655 92.02708l52.517597 -18.676498l0 37.352997zm38.114655 92.015015l23.934525 -50.33467l26.4122 26.4122zm92.02708 38.12671l-18.676498 -52.517593l37.352997 0zm92.01503 -38.12671l-50.334686 -23.92247l26.412216 -26.4122zm-157.0859 -92.015015l0 0c0 -35.937653 29.133224 -65.07087 65.07087 -65.07087c35.937653 0 65.07086 29.133217 65.07086 65.07087c0 35.937637 -29.13321 65.07086 -65.07086 65.07086c-35.937645 0 -65.07087 -29.133224 -65.07087 -65.07086z" fill-rule="evenodd"/><path fill="#fffd48" d="m32.0 191.90945l0 0c0 -12.359009 10.018951 -22.37796 22.377953 -22.37796l0 0c5.9350014 0 11.626923 2.357666 15.823601 6.554352c4.196678 4.196686 6.554352 9.888596 6.554352 15.823608l0 0c0 12.358994 -10.018951 22.377945 -22.377953 22.377945l0 0c-12.359001 0 -22.377953 -10.018951 -22.377953 -22.377945z" fill-rule="evenodd"/><path stroke="#000000" stroke-width="2.0" stroke-linejoin="round" stroke-linecap="butt" d="m32.0 191.90945l0 0c0 -12.359009 10.018951 -22.37796 22.377953 -22.37796l0 0c5.9350014 0 11.626923 2.357666 15.823601 6.554352c4.196678 4.196686 6.554352 9.888596 6.554352 15.823608l0 0c0 12.358994 -10.018951 22.377945 -22.377953 22.377945l0 0c-12.359001 0 -22.377953 -10.018951 -22.377953 -22.377945z" fill-rule="evenodd"/><path fill="#000000" d="m50.05758 207.15945l0 0c0 -2.3917847 1.9389229 -4.3307037 4.3307076 -4.3307037l0 0c1.1485748 0 2.2501068 0.4562683 3.062271 1.2684326c0.8121681 0.8121643 1.2684364 1.9136963 1.2684364 3.062271l0 0c0 2.3917847 -1.9389229 4.330719 -4.3307076 4.330719l0 0c-2.3917847 0 -4.3307076 -1.9389343 -4.3307076 -4.330719z" fill-rule="evenodd"/><path fill="#000000" d="m48.98056 176.15201l10.810535 0l-2.1621094 22.563385l-6.4863205 0z" fill-rule="evenodd"/></g></svg>