<svg version="1.1" viewBox="0.0 0.0 268.0288713910761 268.0288713910761" fill="none" stroke="none" stroke-linecap="square" stroke-miterlimit="10" xmlns:xlink="http://www.w3.org/1999/xlink" xmlns="http://www.w3.org/2000/svg"><clipPath id="p.0"><path d="m0 0l268.02887 0l0 268.02887l-268.02887 0l0 -268.02887z" clip-rule="nonzero"/></clipPath><g clip-path="url(#p.0)"><path fill="#000000" fill-opacity="0.0" d="m0 0l268.02887 0l0 268.02887l-268.02887 0z" fill-rule="evenodd"/><path fill="#ffd966" d="m263.58652 134.01443l-42.527557 15.12381l0 -30.247612zm-30.874146 -74.52144l-19.371872 40.769638l-21.388 -21.388008zm-74.51169 -30.864388l15.12381 42.527565l-30.247604 0zm-74.52143 30.864388l40.76963 19.38163l-21.388 21.388008zm-30.864388 74.52144l42.527557 -15.123802l0 30.247612zm30.864388 74.51169l19.38163 -40.759888l21.388 21.388zm74.52143 30.874146l-15.123795 -42.527573l30.247604 0zm74.51169 -30.874146l-40.759872 -19.371887l21.388 -21.388zm-127.2046 -74.51169l0 0c0 -29.101494 23.591423 -52.69291 52.69291 -52.69291c29.101501 0 52.692917 23.591415 52.692917 52.69291c0 29.101486 -23.591415 52.692917 -52.692917 52.692917c-29.101486 0 -52.69291 -23.59143 -52.69291 -52.692917z" fill-rule="evenodd"/><path stroke="#000000" stroke-width="2.0" stroke-linejoin="round" stroke-linecap="butt" d="m263.58652 134.01443l-42.527557 15.12381l0 -30.247612zm-30.874146 -74.52144l-19.371872 40.769638l-21.388 -21.388008zm-74.51169 -30.864388l15.12381 42.527565l-30.247604 0zm-74.52143 30.864388l40.76963 19.38163l-21.388 21.388008zm-30.864388 74.52144l42.527557 -15.123802l0 30.247612zm30.864388 74.51169l19.38163 -40.759888l21.388 21.388zm74.52143 30.874146l-15.123795 -42.527573l30.247604 0zm74.51169 -30.874146l-40.759872 -19.371887l21.388 -21.388zm-127.2046 -74.51169l0 0c0 -29.101494 23.591423 -52.69291 52.69291 -52.69291c29.101501 0 52.692917 23.591415 52.692917 52.69291c0 29.101486 -23.591415 52.692917 -52.692917 52.692917c-29.101486 0 -52.69291 -23.59143 -52.69291 -52.692917z" fill-rule="evenodd"/><defs><linearGradient id="p.1" gradientUnits="userSpaceOnUse" gradientTransform="matrix(10.848309007292363 0.0 0.0 10.848309007292363 0.0 0.0)" spreadMethod="pad" x1="0.3978941765628798" y1="9.84606977541857" x2="0.3978548962738836" y2="20.694378782639816"><stop offset="0.0" stop-color="#bfbfbf"/><stop offset="1.0" stop-color="#737373"/></linearGradient></defs><path fill="url(#p.1)" d="m18.25062 145.56139l0 0c-1.2330799 -9.489258 2.8153667 -18.883041 10.427433 -24.195236c7.6120663 -5.312187 17.452765 -5.6111374 25.34632 -0.769989l0 0c2.7961388 -5.517441 7.913887 -9.3268585 13.805225 -10.27597c5.891342 -0.94911194 11.864311 1.073555 16.112206 5.456192l0 0c2.3819504 -5.002472 7.0589523 -8.363495 12.371361 -8.890404c5.3124084 -0.52690125 10.508392 1.8548737 13.744141 6.3001633l0 0c4.303337 -5.3026123 11.150063 -7.535225 17.577553 -5.7317886c6.42749 1.8034363 11.281311 7.3190155 12.461197 14.16011l0 0c5.2723236 1.5059662 9.664047 5.3343277 12.040512 10.495949c2.3764648 5.1616364 2.5045319 11.150177 0.35110474 16.418411l0 0c5.191696 7.0758057 6.4061737 16.504227 3.1901855 24.766754c-3.215973 8.262527 -10.379242 14.117798 -18.81659 15.380737c-0.0594635 7.754669 -4.120758 14.87027 -10.618492 18.604126c-6.497719 3.7338562 -14.417229 3.5029144 -20.706001 -0.60380554c-2.6786804 9.287567 -10.218277 16.121262 -19.361404 17.54869c-9.143127 1.4274292 -18.250694 -2.807312 -23.387901 -10.874664c-6.297142 3.9764252 -13.853188 5.1219025 -20.96365 3.1780548c-7.1104584 -1.9438629 -13.17638 -6.8133087 -16.829414 -13.509918l0 0c-6.434887 0.7885437 -12.656535 -2.7026672 -15.577161 -8.740982c-2.9206257 -6.0382996 -1.918498 -13.338272 2.5090303 -18.276978l0 0c-5.740087 -3.5378418 -8.669025 -10.558105 -7.2594886 -17.399994c1.4095368 -6.8418884 6.838142 -11.955002 13.455011 -12.67305z" fill-rule="evenodd"/><path fill="#000000" fill-opacity="0.0" d="m11.927898 176.00017l0 0c2.708764 1.6695099 5.838022 2.4268494 8.967621 2.1703186m4.0991 24.848251c1.3458424 -0.16493225 2.6650238 -0.5141754 3.923523 -1.0387268m33.86766 11.370148c-0.946579 -1.4864807 -1.7391014 -3.0749207 -2.364067 -4.7382355m45.11501 -1.9360657l0 0c0.48836517 -1.6932678 0.80477905 -3.4360046 0.9439697 -5.199127m30.379349 -12.800552c0.063308716 -8.2560425 -4.414673 -15.815369 -11.510536 -19.431015m27.136787 -20.715607c-1.1491547 2.8113403 -2.9034576 5.305252 -5.1253815 7.2861633m-7.265167 -34.20125l0 0c0.19580078 1.1352768 0.28640747 2.2876282 0.2705841 3.441063m-30.308823 -11.869049l0 0c-1.0734711 1.3227386 -1.9578705 2.8008728 -2.6256561 4.388397m-23.49009 -1.7987366l0 0c-0.57206726 1.2014313 -0.9992447 2.4727554 -1.2717056 3.7846832m-28.646164 1.035202l0 0c1.6702728 1.0243835 3.2154999 2.2573395 4.601738 3.6717834m-40.37503 21.293571l0 0c0.16995049 1.3078613 0.43848038 2.5996094 0.8030777 3.8631287" fill-rule="evenodd"/><path stroke="#000000" stroke-width="2.0" stroke-linejoin="round" stroke-linecap="butt" d="m18.25062 145.56139l0 0c-1.2330799 -9.489258 2.8153667 -18.883041 10.427433 -24.195236c7.6120663 -5.312187 17.452765 -5.6111374 25.34632 -0.769989l0 0c2.7961388 -5.517441 7.913887 -9.3268585 13.805225 -10.27597c5.891342 -0.94911194 11.864311 1.073555 16.112206 5.456192l0 0c2.3819504 -5.002472 7.0589523 -8.363495 12.371361 -8.890404c5.3124084 -0.52690125 10.508392 1.8548737 13.744141 6.3001633l0 0c4.303337 -5.3026123 11.150063 -7.535225 17.577553 -5.7317886c6.42749 1.8034363 11.281311 7.3190155 12.461197 14.16011l0 0c5.2723236 1.5059662 9.664047 5.3343277 12.040512 10.495949c2.3764648 5.1616364 2.5045319 11.150177 0.35110474 16.418411l0 0c5.191696 7.0758057 6.4061737 16.504227 3.1901855 24.766754c-3.215973 8.262527 -10.379242 14.117798 -18.81659 15.380737c-0.0594635 7.754669 -4.120758 14.87027 -10.618492 18.604126c-6.497719 3.7338562 -14.417229 3.5029144 -20.706001 -0.60380554c-2.6786804 9.287567 -10.218277 16.121262 -19.361404 17.54869c-9.143127 1.4274292 -18.250694 -2.807312 -23.387901 -10.874664c-6.297142 3.9764252 -13.853188 5.1219025 -20.96365 3.1780548c-7.1104584 -1.9438629 -13.17638 -6.8133087 -16.829414 -13.509918l0 0c-6.434887 0.7885437 -12.656535 -2.7026672 -15.577161 -8.740982c-2.9206257 -6.0382996 -1.918498 -13.338272 2.5090303 -18.276978l0 0c-5.740087 -3.5378418 -8.669025 -10.558105 -7.2594886 -17.399994c1.4095368 -6.8418884 6.838142 -11.955002 13.455011 -12.67305z" fill-rule="evenodd"/><path stroke="#000000" stroke-width="2.0" stroke-linejoin="round" stroke-linecap="butt" d="m11.927898 176.00017l0 0c2.708764 1.6695099 5.838022 2.4268494 8.967621 2.1703186m4.0991 24.848251c1.3458424 -0.16493225 2.6650238 -0.5141754 3.923523 -1.0387268m33.86766 11.370148c-0.946579 -1.4864807 -1.7391014 -3.0749207 -2.364067 -4.7382355m45.11501 -1.9360657l0 0c0.48836517 -1.6932678 0.80477905 -3.4360046 0.9439697 -5.199127m30.379349 -12.800552c0.063308716 -8.2560425 -4.414673 -15.815369 -11.510536 -19.431015m27.136787 -20.715607c-1.1491547 2.8113403 -2.9034576 5.305252 -5.1253815 7.2861633m-7.265167 -34.20125l0 0c0.19580078 1.1352768 0.28640747 2.2876282 0.2705841 3.441063m-30.308823 -11.869049l0 0c-1.0734711 1.3227386 -1.9578705 2.8008728 -2.6256561 4.388397m-23.49009 -1.7987366l0 0c-0.57206726 1.2014313 -0.9992447 2.4727554 -1.2717056 3.7846832m-28.646164 1.035202l0 0c1.6702728 1.0243835 3.2154999 2.2573395 4.601738 3.6717834m-40.37503 21.293571l0 0c0.16995049 1.3078613 0.43848038 2.5996094 0.8030777 3.8631287" fill-rule="evenodd"/></g></svg>