<svg version="1.1" viewBox="0.0 0.0 269.2283464566929 266.8608923884514" fill="none" stroke="none" stroke-linecap="square" stroke-miterlimit="10" xmlns:xlink="http://www.w3.org/1999/xlink" xmlns="http://www.w3.org/2000/svg"><clipPath id="p.0"><path d="m0 0l269.22833 0l0 266.8609l-269.22833 0l0 -266.8609z" clip-rule="nonzero"/></clipPath><g clip-path="url(#p.0)"><path fill="#000000" fill-opacity="0.0" d="m0 0l269.22833 0l0 266.8609l-269.22833 0z" fill-rule="evenodd"/><path fill="#434343" d="m40.622047 133.43045l0 0c0 -51.906075 42.078186 -93.98425 93.984245 -93.98425l0 0c24.926178 0 48.831436 9.901886 66.45691 27.527348c17.625473 17.625473 27.527344 41.53073 27.527344 66.45691l0 0c0 51.906067 -42.07817 93.98425 -93.98425 93.98425l0 0c-51.90606 0 -93.984245 -42.078186 -93.984245 -93.98425zm46.992126 0l0 0c0 25.953033 21.039093 46.992126 46.99212 46.992126c25.953033 0 46.992126 -21.039093 46.992126 -46.992126c0 -25.953041 -21.039093 -46.992126 -46.992126 -46.992126l0 0c-25.953026 0 -46.99212 21.039085 -46.99212 46.992126z" fill-rule="evenodd"/><path fill="#434343" d="m159.81364 44.081364l-50.39895 0l10.079796 -31.858267l30.239365 0z" fill-rule="evenodd"/><path fill="#434343" d="m45.225723 108.23097l0 50.398956l-31.858269 -10.079803l0 -30.239365z" fill-rule="evenodd"/><path fill="#434343" d="m223.99738 108.267715l0 50.398956l31.858261 -10.079788l0 -30.23938z" fill-rule="evenodd"/><path fill="#434343" d="m159.80577 222.85301l-50.39895 0l10.079788 31.858276l30.239372 0z" fill-rule="evenodd"/><path fill="#434343" d="m89.607254 51.505245l-35.63744 35.63744l-15.399712 -29.654682l21.382465 -21.382465z" fill-rule="evenodd"/><path fill="#434343" d="m179.6211 51.505245l35.637436 35.63744l15.399719 -29.654682l-21.382477 -21.382465z" fill-rule="evenodd"/><path fill="#434343" d="m89.607254 215.42914l-35.63744 -35.637436l-15.399712 29.654678l21.382465 21.382462z" fill-rule="evenodd"/><path fill="#434343" d="m179.6211 215.42914l35.637436 -35.637436l15.399719 29.654678l-21.382477 21.382462z" fill-rule="evenodd"/></g></svg>