<svg version="1.1" viewBox="0.0 0.0 268.17847769028873 267.5249343832021" fill="none" stroke="none" stroke-linecap="square" stroke-miterlimit="10" xmlns:xlink="http://www.w3.org/1999/xlink" xmlns="http://www.w3.org/2000/svg"><clipPath id="p.0"><path d="m0 0l268.17847 0l0 267.52493l-268.17847 0l0 -267.52493z" clip-rule="nonzero"/></clipPath><g clip-path="url(#p.0)"><path fill="#000000" fill-opacity="0.0" d="m0 0l268.17847 0l0 267.52493l-268.17847 0z" fill-rule="evenodd"/><defs><linearGradient id="p.1" gradientUnits="userSpaceOnUse" gradientTransform="matrix(14.05577075438484 0.0 0.0 14.05577075438484 0.0 0.0)" spreadMethod="pad" x1="0.392471636254017" y1="2.53726711088091" x2="0.3924207133005614" y2="16.593037865173507"><stop offset="0.0" stop-color="#ffffff"/><stop offset="1.0" stop-color="#b3b3b3"/></linearGradient></defs><path fill="url(#p.1)" d="m28.906384 100.71165l0 0c-2.069851 -15.930061 4.7258835 -31.699852 17.503525 -40.617676c12.777641 -8.91782 29.29626 -9.419678 42.546413 -1.2926178l0 0c4.6936035 -9.262394 13.284271 -15.65744 23.1735 -17.25076c9.889221 -1.5933189 19.915466 1.8022346 27.04599 9.159565l0 0c3.998352 -8.397884 11.849182 -14.040188 20.766617 -14.924732c8.917419 -0.8845444 17.639404 3.113861 23.070938 10.57637l0 0c7.2236023 -8.901737 18.716537 -12.649738 29.505753 -9.622223c10.7892 3.0275154 18.936844 12.2867775 20.917389 23.771255l0 0c8.850143 2.5281296 16.222122 8.954975 20.211258 17.620037c3.9891357 8.66507 4.2041016 18.71833 0.5893707 27.562355l0 0c8.714798 11.878487 10.753403 27.70642 5.355057 41.577118c-5.398346 13.870682 -17.422638 23.70021 -31.585587 25.820358c-0.099823 13.018143 -6.917145 24.963425 -17.824234 31.231628c-10.9071045 6.2681885 -24.20082 5.8805084 -34.75717 -1.0136414c-4.4964447 15.591476 -17.152435 27.063538 -32.500122 29.459824c-15.3476715 2.396286 -30.635666 -4.7127686 -39.259003 -18.255814c-10.570404 6.675415 -23.254005 8.598389 -35.189644 5.335144c-11.935638 -3.2632446 -22.117916 -11.437836 -28.249912 -22.679718l0 0c-10.801622 1.323761 -21.2453 -4.5371246 -26.147871 -14.673904c-4.9025717 -10.136795 -3.220397 -22.391602 4.211666 -30.682434l0 0c-9.635327 -5.939148 -14.551853 -17.72438 -12.185801 -29.210182c2.3660522 -11.485802 11.478527 -20.069427 22.585625 -21.274857z" fill-rule="evenodd"/><path fill="#000000" fill-opacity="0.0" d="m18.293043 151.81065l0 0c4.5469418 2.8027039 9.799725 4.0740814 15.053076 3.6434174m6.880764 41.71393c2.2591362 -0.27687073 4.4735184 -0.8631592 6.5860405 -1.7437592m56.85036 19.087616c-1.5889282 -2.4954376 -2.9192657 -5.162018 -3.9683304 -7.954315m75.7302 -3.2501678l0 0c0.8197632 -2.8425598 1.3509064 -5.768158 1.584549 -8.728012m50.994858 -21.488876c0.106277466 -13.8598175 -7.4104767 -26.550003 -19.32161 -32.619766m45.551895 -34.77626c-1.9289703 4.719528 -4.873764 8.906158 -8.60347 12.231628m-12.195358 -57.415257l0 0c0.32867432 1.9058533 0.48078918 3.840351 0.45422363 5.776676m-50.876495 -19.925129l0 0c-1.8019257 2.220539 -3.2864838 4.7019653 -4.40744 7.367012m-39.430527 -3.019619l0 0c-0.9602814 2.016899 -1.6773529 4.151123 -2.1346893 6.3535156m-48.08555 1.7378464l0 0c2.8037262 1.7196808 5.397545 3.7895012 7.724495 6.163994m-67.77365 35.74652l0 0c0.28528023 2.195572 0.7360344 4.3640823 1.3480492 6.485222" fill-rule="evenodd"/><path stroke="#000000" stroke-width="2.0" stroke-linejoin="round" stroke-linecap="butt" d="m28.906384 100.71165l0 0c-2.069851 -15.930061 4.7258835 -31.699852 17.503525 -40.617676c12.777641 -8.91782 29.29626 -9.419678 42.546413 -1.2926178l0 0c4.6936035 -9.262394 13.284271 -15.65744 23.1735 -17.25076c9.889221 -1.5933189 19.915466 1.8022346 27.04599 9.159565l0 0c3.998352 -8.397884 11.849182 -14.040188 20.766617 -14.924732c8.917419 -0.8845444 17.639404 3.113861 23.070938 10.57637l0 0c7.2236023 -8.901737 18.716537 -12.649738 29.505753 -9.622223c10.7892 3.0275154 18.936844 12.2867775 20.917389 23.771255l0 0c8.850143 2.5281296 16.222122 8.954975 20.211258 17.620037c3.9891357 8.66507 4.2041016 18.71833 0.5893707 27.562355l0 0c8.714798 11.878487 10.753403 27.70642 5.355057 41.577118c-5.398346 13.870682 -17.422638 23.70021 -31.585587 25.820358c-0.099823 13.018143 -6.917145 24.963425 -17.824234 31.231628c-10.9071045 6.2681885 -24.20082 5.8805084 -34.75717 -1.0136414c-4.4964447 15.591476 -17.152435 27.063538 -32.500122 29.459824c-15.3476715 2.396286 -30.635666 -4.7127686 -39.259003 -18.255814c-10.570404 6.675415 -23.254005 8.598389 -35.189644 5.335144c-11.935638 -3.2632446 -22.117916 -11.437836 -28.249912 -22.679718l0 0c-10.801622 1.323761 -21.2453 -4.5371246 -26.147871 -14.673904c-4.9025717 -10.136795 -3.220397 -22.391602 4.211666 -30.682434l0 0c-9.635327 -5.939148 -14.551853 -17.72438 -12.185801 -29.210182c2.3660522 -11.485802 11.478527 -20.069427 22.585625 -21.274857z" fill-rule="evenodd"/><path stroke="#000000" stroke-width="2.0" stroke-linejoin="round" stroke-linecap="butt" d="m18.293043 151.81065l0 0c4.5469418 2.8027039 9.799725 4.0740814 15.053076 3.6434174m6.880764 41.71393c2.2591362 -0.27687073 4.4735184 -0.8631592 6.5860405 -1.7437592m56.85036 19.087616c-1.5889282 -2.4954376 -2.9192657 -5.162018 -3.9683304 -7.954315m75.7302 -3.2501678l0 0c0.8197632 -2.8425598 1.3509064 -5.768158 1.584549 -8.728012m50.994858 -21.488876c0.106277466 -13.8598175 -7.4104767 -26.550003 -19.32161 -32.619766m45.551895 -34.77626c-1.9289703 4.719528 -4.873764 8.906158 -8.60347 12.231628m-12.195358 -57.415257l0 0c0.32867432 1.9058533 0.48078918 3.840351 0.45422363 5.776676m-50.876495 -19.925129l0 0c-1.8019257 2.220539 -3.2864838 4.7019653 -4.40744 7.367012m-39.430527 -3.019619l0 0c-0.9602814 2.016899 -1.6773529 4.151123 -2.1346893 6.3535156m-48.08555 1.7378464l0 0c2.8037262 1.7196808 5.397545 3.7895012 7.724495 6.163994m-67.77365 35.74652l0 0c0.28528023 2.195572 0.7360344 4.3640823 1.3480492 6.485222" fill-rule="evenodd"/></g></svg>