<svg version="1.1" viewBox="0.0 0.0 268.005249343832 266.496062992126" fill="none" stroke="none" stroke-linecap="square" stroke-miterlimit="10" xmlns:xlink="http://www.w3.org/1999/xlink" xmlns="http://www.w3.org/2000/svg"><clipPath id="p.0"><path d="m0 0l268.00525 0l0 266.49606l-268.00525 0l0 -266.49606z" clip-rule="nonzero"/></clipPath><g clip-path="url(#p.0)"><path fill="#000000" fill-opacity="0.0" d="m0 0l268.00525 0l0 266.49606l-268.00525 0z" fill-rule="evenodd"/><defs><linearGradient id="p.1" gradientUnits="userSpaceOnUse" gradientTransform="matrix(12.726285864983149 0.0 0.0 12.726285864983149 0.0 0.0)" spreadMethod="pad" x1="3.107538517914026" y1="0.20243781078459944" x2="3.1074925972414507" y2="12.928723675684902"><stop offset="0.0" stop-color="#bfbfbf"/><stop offset="1.0" stop-color="#737373"/></linearGradient></defs><path fill="url(#p.1)" d="m58.722363 55.901253l0 0c-1.6968575 -13.059044 3.87426 -25.986706 14.349316 -33.297302c10.4750595 -7.3105955 24.01696 -7.722006 34.87938 -1.0596523l0 0c3.8478012 -7.593071 10.890396 -12.835562 18.997543 -14.141722c8.10714 -1.3061604 16.326622 1.4774232 22.172203 7.5087724l0 0c3.277832 -6.884366 9.713898 -11.509781 17.024368 -12.234905c7.3104706 -0.72512496 14.460724 2.5526617 18.913483 8.670232l0 0c5.921875 -7.29741 15.343735 -10.369924 24.188675 -7.888046c8.844955 2.4818778 15.524353 10.072378 17.147995 19.48705l0 0c7.25531 2.0724964 13.298828 7.341055 16.569107 14.444447c3.270279 7.1033936 3.446518 15.344799 0.48316956 22.594894l0 0c7.1443634 9.737675 8.815598 22.713001 4.3900604 34.083828c-4.4255524 11.370827 -14.283005 19.42881 -25.893738 21.166862c-0.081848145 10.671921 -5.670639 20.464363 -14.612244 25.602867c-8.941605 5.138504 -19.839737 4.8206787 -28.49379 -0.8309479c-3.6861572 12.781479 -14.061493 22.185959 -26.643463 24.150375c-12.581955 1.9644165 -25.114998 -3.8634033 -32.184372 -14.965622c-8.665573 5.4723206 -19.063538 7.0487213 -28.848328 4.373596c-9.78479 -2.6751251 -18.13218 -9.376434 -23.159164 -18.59224l0 0c-8.855125 1.0851898 -17.41681 -3.7194061 -21.435917 -12.029282c-4.019108 -8.309868 -2.640068 -18.356049 3.4527092 -25.152649l0 0c-7.899006 -4.868759 -11.929554 -14.529991 -9.989872 -23.945747c1.939682 -9.415749 9.410049 -16.452385 18.515602 -17.440563z" fill-rule="evenodd"/><path fill="#000000" fill-opacity="0.0" d="m50.02159 97.790886l0 0c3.727562 2.297577 8.0337715 3.3398132 12.34045 2.9867706m5.6408195 34.19599c1.8520279 -0.22697449 3.6673737 -0.7075958 5.399208 -1.4294891m46.605698 15.647522c-1.302597 -2.0456848 -2.3932037 -4.231674 -3.2532196 -6.5207367m62.083313 -2.6643982l0 0c0.67204285 -2.3302612 1.1074677 -4.728592 1.2990112 -7.154999m41.805374 -17.61602c0.087127686 -11.361916 -6.0750885 -21.765 -15.839783 -26.740822m37.34326 -28.50867c-1.5813599 3.868946 -3.9954834 7.301037 -7.0531006 10.027172m-9.997696 -47.067528l0 0c0.26945496 1.5623684 0.39414978 3.1482182 0.3723755 4.735569m-41.708344 -16.334103l0 0c-1.4772186 1.8203421 -2.6942444 3.8545494 -3.613205 6.0392847m-32.32498 -2.4754057l0 0c-0.78723145 1.6534014 -1.3750916 3.4029856 -1.7500153 5.2084455m-39.420334 1.4246407l0 0c2.2984772 1.40975 4.424881 3.106535 6.3325043 5.0530796m-55.560566 29.30406l0 0c0.23387146 1.7998772 0.60339737 3.5775604 1.1051254 5.3164177" fill-rule="evenodd"/><path stroke="#000000" stroke-width="2.0" stroke-linejoin="round" stroke-linecap="butt" d="m58.722363 55.901253l0 0c-1.6968575 -13.059044 3.87426 -25.986706 14.349316 -33.297302c10.4750595 -7.3105955 24.01696 -7.722006 34.87938 -1.0596523l0 0c3.8478012 -7.593071 10.890396 -12.835562 18.997543 -14.141722c8.10714 -1.3061604 16.326622 1.4774232 22.172203 7.5087724l0 0c3.277832 -6.884366 9.713898 -11.509781 17.024368 -12.234905c7.3104706 -0.72512496 14.460724 2.5526617 18.913483 8.670232l0 0c5.921875 -7.29741 15.343735 -10.369924 24.188675 -7.888046c8.844955 2.4818778 15.524353 10.072378 17.147995 19.48705l0 0c7.25531 2.0724964 13.298828 7.341055 16.569107 14.444447c3.270279 7.1033936 3.446518 15.344799 0.48316956 22.594894l0 0c7.1443634 9.737675 8.815598 22.713001 4.3900604 34.083828c-4.4255524 11.370827 -14.283005 19.42881 -25.893738 21.166862c-0.081848145 10.671921 -5.670639 20.464363 -14.612244 25.602867c-8.941605 5.138504 -19.839737 4.8206787 -28.49379 -0.8309479c-3.6861572 12.781479 -14.061493 22.185959 -26.643463 24.150375c-12.581955 1.9644165 -25.114998 -3.8634033 -32.184372 -14.965622c-8.665573 5.4723206 -19.063538 7.0487213 -28.848328 4.373596c-9.78479 -2.6751251 -18.13218 -9.376434 -23.159164 -18.59224l0 0c-8.855125 1.0851898 -17.41681 -3.7194061 -21.435917 -12.029282c-4.019108 -8.309868 -2.640068 -18.356049 3.4527092 -25.152649l0 0c-7.899006 -4.868759 -11.929554 -14.529991 -9.989872 -23.945747c1.939682 -9.415749 9.410049 -16.452385 18.515602 -17.440563z" fill-rule="evenodd"/><path stroke="#000000" stroke-width="2.0" stroke-linejoin="round" stroke-linecap="butt" d="m50.02159 97.790886l0 0c3.727562 2.297577 8.0337715 3.3398132 12.34045 2.9867706m5.6408195 34.19599c1.8520279 -0.22697449 3.6673737 -0.7075958 5.399208 -1.4294891m46.605698 15.647522c-1.302597 -2.0456848 -2.3932037 -4.231674 -3.2532196 -6.5207367m62.083313 -2.6643982l0 0c0.67204285 -2.3302612 1.1074677 -4.728592 1.2990112 -7.154999m41.805374 -17.61602c0.087127686 -11.361916 -6.0750885 -21.765 -15.839783 -26.740822m37.34326 -28.50867c-1.5813599 3.868946 -3.9954834 7.301037 -7.0531006 10.027172m-9.997696 -47.067528l0 0c0.26945496 1.5623684 0.39414978 3.1482182 0.3723755 4.735569m-41.708344 -16.334103l0 0c-1.4772186 1.8203421 -2.6942444 3.8545494 -3.613205 6.0392847m-32.32498 -2.4754057l0 0c-0.78723145 1.6534014 -1.3750916 3.4029856 -1.7500153 5.2084455m-39.420334 1.4246407l0 0c2.2984772 1.40975 4.424881 3.106535 6.3325043 5.0530796m-55.560566 29.30406l0 0c0.23387146 1.7998772 0.60339737 3.5775604 1.1051254 5.3164177" fill-rule="evenodd"/><defs><linearGradient id="p.2" gradientUnits="userSpaceOnUse" gradientTransform="matrix(3.8007444001804416 -2.6413430118708874 2.6413430118708874 3.8007444001804416 0.0 0.0)" spreadMethod="pad" x1="-7.1166164538800505" y1="42.44225053539217" x2="-7.116630298515097" y2="46.242994935547394"><stop offset="0.0" stop-color="#dfe9fb"/><stop offset="1.0" stop-color="#6e9be7"/></linearGradient></defs><path fill="url(#p.2)" d="m90.32352 187.68909l0 0c-2.635315 -3.7920685 -1.6975784 -9.002487 2.09449 -11.637802q3.7897263 -2.6336823 7.0837326 -5.9806976q1.920372 4.2854614 4.554062 8.075195l0 0c2.6353073 3.7920685 1.6975784 9.002487 -2.09449 11.637787l0 0c-3.7920685 2.635315 -9.002487 1.697586 -11.6377945 -2.0944824z" fill-rule="evenodd"/><path stroke="#000000" stroke-width="1.0" stroke-linejoin="round" stroke-linecap="butt" d="m90.32352 187.68909l0 0c-2.635315 -3.7920685 -1.6975784 -9.002487 2.09449 -11.637802q3.7897263 -2.6336823 7.0837326 -5.9806976q1.920372 4.2854614 4.554062 8.075195l0 0c2.6353073 3.7920685 1.6975784 9.002487 -2.09449 11.637787l0 0c-3.7920685 2.635315 -9.002487 1.697586 -11.6377945 -2.0944824z" fill-rule="evenodd"/><defs><linearGradient id="p.3" gradientUnits="userSpaceOnUse" gradientTransform="matrix(3.826806471604808 -2.545432359086128 2.545432359086128 3.826806471604808 0.0 0.0)" spreadMethod="pad" x1="-1.4125822508727877" y1="64.50016476270712" x2="-1.4125960536203788" y2="68.32697123428703"><stop offset="0.0" stop-color="#dfe9fb"/><stop offset="1.0" stop-color="#6e9be7"/></linearGradient></defs><path fill="url(#p.3)" d="m163.88608 258.1091l0 0c-2.5570374 -3.8442535 -1.5135345 -9.033524 2.3307037 -11.590561q3.8418884 -2.5554657 7.202774 -5.8340607q1.8323212 4.322891 4.387787 8.16478l0 0c2.5570374 3.8442383 1.5135345 9.033524 -2.3307037 11.59053l0 0c-3.8442535 2.5570374 -9.033524 1.5135498 -11.590561 -2.3306885z" fill-rule="evenodd"/><path stroke="#000000" stroke-width="1.0" stroke-linejoin="round" stroke-linecap="butt" d="m163.88608 258.1091l0 0c-2.5570374 -3.8442535 -1.5135345 -9.033524 2.3307037 -11.590561q3.8418884 -2.5554657 7.202774 -5.8340607q1.8323212 4.322891 4.387787 8.16478l0 0c2.5570374 3.8442383 1.5135345 9.033524 -2.3307037 11.59053l0 0c-3.8442535 2.5570374 -9.033524 1.5135498 -11.590561 -2.3306885z" fill-rule="evenodd"/><defs><linearGradient id="p.4" gradientUnits="userSpaceOnUse" gradientTransform="matrix(3.8007444002331097 -2.6413430116871015 2.6413430116871015 3.8007444002331097 0.0 0.0)" spreadMethod="pad" x1="9.534322793199774" y1="52.08306072407732" x2="9.534308394779327" y2="55.883805124283164"><stop offset="0.0" stop-color="#dfe9fb"/><stop offset="1.0" stop-color="#6e9be7"/></linearGradient></defs><path fill="url(#p.4)" d="m179.07417 180.35051l0 0c-2.635315 -3.7920685 -1.697586 -9.002487 2.0944824 -11.637802q3.789734 -2.6336823 7.08374 -5.9806976q1.9203644 4.2854614 4.554062 8.07518l0 0c2.635315 3.7920685 1.6975708 9.002487 -2.0944977 11.637802l0 0c-3.7920532 2.635315 -9.002472 1.6975708 -11.637787 -2.0944824z" fill-rule="evenodd"/><path stroke="#000000" stroke-width="1.0" stroke-linejoin="round" stroke-linecap="butt" d="m179.07417 180.35051l0 0c-2.635315 -3.7920685 -1.697586 -9.002487 2.0944824 -11.637802q3.789734 -2.6336823 7.08374 -5.9806976q1.9203644 4.2854614 4.554062 8.07518l0 0c2.635315 3.7920685 1.6975708 9.002487 -2.0944977 11.637802l0 0c-3.7920532 2.635315 -9.002472 1.6975708 -11.637787 -2.0944824z" fill-rule="evenodd"/><defs><linearGradient id="p.5" gradientUnits="userSpaceOnUse" gradientTransform="matrix(3.8007444001287998 -2.6413430120553967 2.6413430120553967 3.8007444001287998 0.0 0.0)" spreadMethod="pad" x1="-8.975823569775724" y1="54.663908918501896" x2="-8.975837414410769" y2="58.46465331860548"><stop offset="0.0" stop-color="#dfe9fb"/><stop offset="1.0" stop-color="#6e9be7"/></linearGradient></defs><path fill="url(#p.5)" d="m115.53874 239.05128l0 0c-2.635315 -3.7920532 -1.6975784 -9.002472 2.0944824 -11.637787q3.789734 -2.6336975 7.08374 -5.980713q1.9203644 4.2854614 4.554062 8.075195l0 0c2.6352997 3.7920685 1.6975708 9.002487 -2.09449 11.637802l0 0c-3.7920685 2.635315 -9.002487 1.6975708 -11.6377945 -2.0944977z" fill-rule="evenodd"/><path stroke="#000000" stroke-width="1.0" stroke-linejoin="round" stroke-linecap="butt" d="m115.53874 239.05128l0 0c-2.635315 -3.7920532 -1.6975784 -9.002472 2.0944824 -11.637787q3.789734 -2.6336975 7.08374 -5.980713q1.9203644 4.2854614 4.554062 8.075195l0 0c2.6352997 3.7920685 1.6975708 9.002487 -2.09449 11.637802l0 0c-3.7920685 2.635315 -9.002487 1.6975708 -11.6377945 -2.0944977z" fill-rule="evenodd"/><defs><linearGradient id="p.6" gradientUnits="userSpaceOnUse" gradientTransform="matrix(3.800744400179453 -2.6413430118702004 2.6413430118702004 3.800744400179453 0.0 0.0)" spreadMethod="pad" x1="-19.37965368296265" y1="51.276044763294635" x2="-19.379666973812295" y2="55.07678916345085"><stop offset="0.0" stop-color="#dfe9fb"/><stop offset="1.0" stop-color="#6e9be7"/></linearGradient></defs><path fill="url(#p.6)" d="m67.04793 253.65497l0 0c-2.635315 -3.7920685 -1.6975784 -9.002487 2.0944824 -11.637802q3.789734 -2.6336823 7.08374 -5.9806976q1.9203644 4.2854614 4.5540543 8.075195l0 0c2.635315 3.7920685 1.6975784 9.002472 -2.0944824 11.637787l0 0c-3.7920685 2.635315 -9.002487 1.6975708 -11.6377945 -2.0944824z" fill-rule="evenodd"/><path stroke="#000000" stroke-width="1.0" stroke-linejoin="round" stroke-linecap="butt" d="m67.04793 253.65497l0 0c-2.635315 -3.7920685 -1.6975784 -9.002487 2.0944824 -11.637802q3.789734 -2.6336823 7.08374 -5.9806976q1.9203644 4.2854614 4.5540543 8.075195l0 0c2.635315 3.7920685 1.6975784 9.002472 -2.0944824 11.637787l0 0c-3.7920685 2.635315 -9.002487 1.6975708 -11.6377945 -2.0944824z" fill-rule="evenodd"/><defs><linearGradient id="p.7" gradientUnits="userSpaceOnUse" gradientTransform="matrix(3.800744400128549 -2.6413430120552226 2.6413430120552226 3.800744400128549 0.0 0.0)" spreadMethod="pad" x1="2.3132042649082654" y1="51.3614296109833" x2="2.3131905587195702" y2="55.16217401108714"><stop offset="0.0" stop-color="#dfe9fb"/><stop offset="1.0" stop-color="#6e9be7"/></linearGradient></defs><path fill="url(#p.7)" d="m149.72247 196.68121l0 0c-2.635315 -3.7920685 -1.697586 -9.002487 2.0944824 -11.637802q3.789734 -2.6336823 7.08374 -5.9806976q1.9203644 4.2854614 4.5540466 8.075195l0 0c2.635315 3.7920685 1.697586 9.002487 -2.0944824 11.637787l0 0c-3.7920685 2.635315 -9.002487 1.697586 -11.637787 -2.0944824z" fill-rule="evenodd"/><path stroke="#000000" stroke-width="1.0" stroke-linejoin="round" stroke-linecap="butt" d="m149.72247 196.68121l0 0c-2.635315 -3.7920685 -1.697586 -9.002487 2.0944824 -11.637802q3.789734 -2.6336823 7.08374 -5.9806976q1.9203644 4.2854614 4.5540466 8.075195l0 0c2.635315 3.7920685 1.697586 9.002487 -2.0944824 11.637787l0 0c-3.7920685 2.635315 -9.002487 1.697586 -11.637787 -2.0944824z" fill-rule="evenodd"/><path fill="#fffd48" d="m32.0 191.90945l0 0c0 -12.359009 10.018951 -22.37796 22.377953 -22.37796l0 0c5.9350014 0 11.626923 2.357666 15.823601 6.554352c4.196678 4.196686 6.554352 9.888596 6.554352 15.823608l0 0c0 12.358994 -10.018951 22.377945 -22.377953 22.377945l0 0c-12.359001 0 -22.377953 -10.018951 -22.377953 -22.377945z" fill-rule="evenodd"/><path stroke="#000000" stroke-width="2.0" stroke-linejoin="round" stroke-linecap="butt" d="m32.0 191.90945l0 0c0 -12.359009 10.018951 -22.37796 22.377953 -22.37796l0 0c5.9350014 0 11.626923 2.357666 15.823601 6.554352c4.196678 4.196686 6.554352 9.888596 6.554352 15.823608l0 0c0 12.358994 -10.018951 22.377945 -22.377953 22.377945l0 0c-12.359001 0 -22.377953 -10.018951 -22.377953 -22.377945z" fill-rule="evenodd"/><path fill="#000000" d="m50.05758 207.15945l0 0c0 -2.3917847 1.9389229 -4.3307037 4.3307076 -4.3307037l0 0c1.1485748 0 2.2501068 0.4562683 3.062271 1.2684326c0.8121681 0.8121643 1.2684364 1.9136963 1.2684364 3.062271l0 0c0 2.3917847 -1.9389229 4.330719 -4.3307076 4.330719l0 0c-2.3917847 0 -4.3307076 -1.9389343 -4.3307076 -4.330719z" fill-rule="evenodd"/><path fill="#000000" d="m48.98056 176.15201l10.810535 0l-2.1621094 22.563385l-6.4863205 0z" fill-rule="evenodd"/></g></svg>