<svg version="1.1" viewBox="0.0 0.0 268.5485564304462 267.6981627296588" fill="none" stroke="none" stroke-linecap="square" stroke-miterlimit="10" xmlns:xlink="http://www.w3.org/1999/xlink" xmlns="http://www.w3.org/2000/svg"><clipPath id="p.0"><path d="m0 0l268.54855 0l0 267.69815l-268.54855 0l0 -267.69815z" clip-rule="nonzero"/></clipPath><g clip-path="url(#p.0)"><path fill="#000000" fill-opacity="0.0" d="m0 0l268.54855 0l0 267.69815l-268.54855 0z" fill-rule="evenodd"/><defs><linearGradient id="p.1" gradientUnits="userSpaceOnUse" gradientTransform="matrix(14.075528286210448 0.0 0.0 14.075528286210448 0.0 0.0)" spreadMethod="pad" x1="0.3796944350091925" y1="2.5202382002511636" x2="0.37964349248515983" y2="16.595766486369428"><stop offset="0.0" stop-color="#bfbfbf"/><stop offset="1.0" stop-color="#737373"/></linearGradient></defs><path fill="url(#p.1)" d="m28.799377 100.705086l0 0c-2.075611 -15.974876 4.7390327 -31.789032 17.552227 -40.731945c12.813194 -8.942909 29.37778 -9.446178 42.6648 -1.2962532l0 0c4.706665 -9.288456 13.321243 -15.701492 23.237984 -17.299294c9.91674 -1.5978012 19.970894 1.8073044 27.121254 9.185337l0 0c4.0094757 -8.421513 11.882156 -14.079693 20.824387 -14.966724c8.9422455 -0.88702774 17.688507 3.1226234 23.135147 10.606129l0 0c7.2437134 -8.926781 18.768616 -12.685326 29.587845 -9.649292c10.819229 3.0360298 18.989548 12.321342 20.975601 23.838127l0 0c8.874771 2.535244 16.267258 8.980167 20.267502 17.669613c4.000229 8.6894455 4.215805 18.770988 0.5910034 27.639893l0 0c8.739059 11.911911 10.78334 27.78437 5.3699493 41.694084c-5.4133606 13.909714 -17.4711 23.766891 -31.673462 25.893005c-0.100112915 13.054764 -6.936386 25.03366 -17.87384 31.319489c-10.937454 6.2858276 -24.268158 5.897049 -34.85388 -1.0164795c-4.508957 15.63533 -17.200165 27.139664 -32.590546 29.542694c-15.3903885 2.4030304 -30.720924 -4.7260284 -39.368248 -18.30716c-10.599815 6.6941833 -23.31871 8.622559 -35.287567 5.3501434c-11.968849 -3.2724304 -22.179459 -11.470001 -28.328518 -22.74353l0 0c-10.831678 1.3274841 -21.304417 -4.549881 -26.220629 -14.715179c-4.916214 -10.165314 -3.2293587 -22.454605 4.223385 -30.768753l0 0c-9.662138 -5.9558563 -14.592344 -17.774261 -12.2197075 -29.292366c2.3726363 -11.518112 11.510466 -20.125885 22.64847 -21.33471z" fill-rule="evenodd"/><path fill="#000000" fill-opacity="0.0" d="m18.156504 151.94786l0 0c4.559593 2.8105774 9.826992 4.0855255 15.094961 3.653656m6.89991 41.831284c2.2654228 -0.27763367 4.4859657 -0.8655853 6.6043663 -1.7486572m57.00855 19.141312c-1.5933533 -2.5024567 -2.9273834 -5.176529 -3.97937 -7.9766846m75.940926 -3.2593231l0 0c0.822052 -2.8505554 1.35466 -5.7843933 1.5889587 -8.752563m51.13675 -21.549332c0.10658264 -13.898819 -7.4310913 -26.62471 -19.375381 -32.711533m45.67865 -34.8741c-1.9343262 4.732811 -4.887314 8.931213 -8.627411 12.266037m-12.229279 -57.576782l0 0c0.32958984 1.9112129 0.4821167 3.8511505 0.4554901 5.7929306m-51.018066 -19.98119l0 0c-1.8069458 2.2267876 -3.2956238 4.7151947 -4.4197083 7.3877373m-39.540237 -3.0281143l0 0c-0.96295166 2.0225754 -1.6820221 4.1628036 -2.1406403 6.3713913m-48.219345 1.742733l0 0c2.811531 1.7245216 5.412567 3.8001633 7.745987 6.1813316m-67.962234 35.84709l0 0c0.28607178 2.2017517 0.7380829 4.376358 1.351799 6.5034714" fill-rule="evenodd"/><path stroke="#000000" stroke-width="2.0" stroke-linejoin="round" stroke-linecap="butt" d="m28.799377 100.705086l0 0c-2.075611 -15.974876 4.7390327 -31.789032 17.552227 -40.731945c12.813194 -8.942909 29.37778 -9.446178 42.6648 -1.2962532l0 0c4.706665 -9.288456 13.321243 -15.701492 23.237984 -17.299294c9.91674 -1.5978012 19.970894 1.8073044 27.121254 9.185337l0 0c4.0094757 -8.421513 11.882156 -14.079693 20.824387 -14.966724c8.9422455 -0.88702774 17.688507 3.1226234 23.135147 10.606129l0 0c7.2437134 -8.926781 18.768616 -12.685326 29.587845 -9.649292c10.819229 3.0360298 18.989548 12.321342 20.975601 23.838127l0 0c8.874771 2.535244 16.267258 8.980167 20.267502 17.669613c4.000229 8.6894455 4.215805 18.770988 0.5910034 27.639893l0 0c8.739059 11.911911 10.78334 27.78437 5.3699493 41.694084c-5.4133606 13.909714 -17.4711 23.766891 -31.673462 25.893005c-0.100112915 13.054764 -6.936386 25.03366 -17.87384 31.319489c-10.937454 6.2858276 -24.268158 5.897049 -34.85388 -1.0164795c-4.508957 15.63533 -17.200165 27.139664 -32.590546 29.542694c-15.3903885 2.4030304 -30.720924 -4.7260284 -39.368248 -18.30716c-10.599815 6.6941833 -23.31871 8.622559 -35.287567 5.3501434c-11.968849 -3.2724304 -22.179459 -11.470001 -28.328518 -22.74353l0 0c-10.831678 1.3274841 -21.304417 -4.549881 -26.220629 -14.715179c-4.916214 -10.165314 -3.2293587 -22.454605 4.223385 -30.768753l0 0c-9.662138 -5.9558563 -14.592344 -17.774261 -12.2197075 -29.292366c2.3726363 -11.518112 11.510466 -20.125885 22.64847 -21.33471z" fill-rule="evenodd"/><path stroke="#000000" stroke-width="2.0" stroke-linejoin="round" stroke-linecap="butt" d="m18.156504 151.94786l0 0c4.559593 2.8105774 9.826992 4.0855255 15.094961 3.653656m6.89991 41.831284c2.2654228 -0.27763367 4.4859657 -0.8655853 6.6043663 -1.7486572m57.00855 19.141312c-1.5933533 -2.5024567 -2.9273834 -5.176529 -3.97937 -7.9766846m75.940926 -3.2593231l0 0c0.822052 -2.8505554 1.35466 -5.7843933 1.5889587 -8.752563m51.13675 -21.549332c0.10658264 -13.898819 -7.4310913 -26.62471 -19.375381 -32.711533m45.67865 -34.8741c-1.9343262 4.732811 -4.887314 8.931213 -8.627411 12.266037m-12.229279 -57.576782l0 0c0.32958984 1.9112129 0.4821167 3.8511505 0.4554901 5.7929306m-51.018066 -19.98119l0 0c-1.8069458 2.2267876 -3.2956238 4.7151947 -4.4197083 7.3877373m-39.540237 -3.0281143l0 0c-0.96295166 2.0225754 -1.6820221 4.1628036 -2.1406403 6.3713913m-48.219345 1.742733l0 0c2.811531 1.7245216 5.412567 3.8001633 7.745987 6.1813316m-67.962234 35.84709l0 0c0.28607178 2.2017517 0.7380829 4.376358 1.351799 6.5034714" fill-rule="evenodd"/></g></svg>