<svg version="1.1" viewBox="0.0 0.0 269.0209973753281 267.92913385826773" fill="none" stroke="none" stroke-linecap="square" stroke-miterlimit="10" xmlns:xlink="http://www.w3.org/1999/xlink" xmlns="http://www.w3.org/2000/svg"><clipPath id="p.0"><path d="m0 0l269.021 0l0 267.92914l-269.021 0l0 -267.92914z" clip-rule="nonzero"/></clipPath><g clip-path="url(#p.0)"><path fill="#000000" fill-opacity="0.0" d="m0 0l269.021 0l0 267.92914l-269.021 0z" fill-rule="evenodd"/><path fill="#ff0000" d="m24.022604 24.022604l219.87402 0l0 219.87402l-219.87402 0z" fill-rule="evenodd"/><path stroke="#000000" stroke-width="2.0" stroke-linejoin="round" stroke-linecap="butt" d="m24.022604 24.022604l219.87402 0l0 219.87402l-219.87402 0z" fill-rule="evenodd"/><path fill="#000000" d="m51.52627 77.17727l25.650997 -25.650997l56.791237 56.791233l56.79123 -56.791233l25.651001 25.650997l-56.79123 56.791237l56.79123 56.79123l-25.651001 25.651001l-56.79123 -56.79123l-56.791237 56.79123l-25.650997 -25.651001l56.791233 -56.79123z" fill-rule="evenodd"/><path stroke="#000000" stroke-width="1.0" stroke-linejoin="round" stroke-linecap="butt" d="m51.52627 77.17727l25.650997 -25.650997l56.791237 56.791233l56.79123 -56.791233l25.651001 25.650997l-56.79123 56.791237l56.79123 56.79123l-25.651001 25.651001l-56.79123 -56.79123l-56.791237 56.79123l-25.650997 -25.651001l56.791233 -56.79123z" fill-rule="evenodd"/></g></svg>