<svg version="1.1" viewBox="0.0 0.0 268.6404199475066 267.96587926509187" fill="none" stroke="none" stroke-linecap="square" stroke-miterlimit="10" xmlns:xlink="http://www.w3.org/1999/xlink" xmlns="http://www.w3.org/2000/svg"><clipPath id="p.0"><path d="m0 0l268.6404 0l0 267.96588l-268.6404 0l0 -267.96588z" clip-rule="nonzero"/></clipPath><g clip-path="url(#p.0)"><path fill="#000000" fill-opacity="0.0" d="m0 0l268.6404 0l0 267.96588l-268.6404 0z" fill-rule="evenodd"/><path fill="#cccccc" d="m2.383191 133.98293l0 0c0 -72.86679 59.07021 -131.93701 131.93701 -131.93701l0 0c34.991867 0 68.55055 13.900467 93.29355 38.643456c24.742981 24.742989 38.643448 58.30168 38.643448 93.29355l0 0c0 72.866806 -59.070206 131.937 -131.937 131.937l0 0c-72.866806 0 -131.93701 -59.07019 -131.93701 -131.937z" fill-rule="evenodd"/><path stroke="#000000" stroke-width="2.0" stroke-linejoin="round" stroke-linecap="butt" d="m2.383191 133.98293l0 0c0 -72.86679 59.07021 -131.93701 131.93701 -131.93701l0 0c34.991867 0 68.55055 13.900467 93.29355 38.643456c24.742981 24.742989 38.643448 58.30168 38.643448 93.29355l0 0c0 72.866806 -59.070206 131.937 -131.937 131.937l0 0c-72.866806 0 -131.93701 -59.07019 -131.93701 -131.937z" fill-rule="evenodd"/><path fill="#000000" d="m108.816765 223.81581l0 0c0 -14.089783 11.422028 -25.51181 25.511818 -25.51181l0 0c6.766144 0 13.255173 2.687851 18.039566 7.4722443c4.7843933 4.7843933 7.4722443 11.273422 7.4722443 18.039566l0 0c0 14.089798 -11.422028 25.51181 -25.51181 25.51181l0 0c-14.08979 0 -25.511818 -11.422012 -25.511818 -25.51181z" fill-rule="evenodd"/><path fill="#000000" d="m102.46869 41.067997l63.718613 0l-12.743729 132.99142l-38.231163 0z" fill-rule="evenodd"/></g></svg>