<svg version="1.1" viewBox="0.0 0.0 268.9212598425197 267.1653543307087" fill="none" stroke="none" stroke-linecap="square" stroke-miterlimit="10" xmlns:xlink="http://www.w3.org/1999/xlink" xmlns="http://www.w3.org/2000/svg"><clipPath id="p.0"><path d="m0 0l268.92126 0l0 267.16534l-268.92126 0l0 -267.16534z" clip-rule="nonzero"/></clipPath><g clip-path="url(#p.0)"><path fill="#000000" fill-opacity="0.0" d="m0 0l268.92126 0l0 267.16534l-268.92126 0z" fill-rule="evenodd"/><path fill="#ffd966" d="m263.8026 133.58267l-42.45131 15.096695l0 -30.193375zm-30.818787 -74.3878l-19.337143 40.69653l-21.349655 -21.349648zm-74.37807 -30.80904l15.09668 42.4513l-30.193375 0zm-74.38782 30.80904l40.696526 19.346882l-21.349648 21.349648zm-30.80904 74.3878l42.451298 -15.09668l0 30.193375zm30.80904 74.37807l19.346878 -40.686783l21.349648 21.349655zm74.38782 30.818787l-15.096695 -42.451294l30.193375 0zm74.37807 -30.818787l-40.6868 -19.337128l21.349655 -21.349655zm-126.9765 -74.37807l0 0c0 -29.049301 23.549118 -52.59842 52.598434 -52.59842c29.049301 0 52.59842 23.549118 52.59842 52.59842c0 29.049316 -23.549118 52.598434 -52.59842 52.598434c-29.049316 0 -52.598434 -23.549118 -52.598434 -52.598434z" fill-rule="evenodd"/><path stroke="#000000" stroke-width="2.0" stroke-linejoin="round" stroke-linecap="butt" d="m263.8026 133.58267l-42.45131 15.096695l0 -30.193375zm-30.818787 -74.3878l-19.337143 40.69653l-21.349655 -21.349648zm-74.37807 -30.80904l15.09668 42.4513l-30.193375 0zm-74.38782 30.80904l40.696526 19.346882l-21.349648 21.349648zm-30.80904 74.3878l42.451298 -15.09668l0 30.193375zm30.80904 74.37807l19.346878 -40.686783l21.349648 21.349655zm74.38782 30.818787l-15.096695 -42.451294l30.193375 0zm74.37807 -30.818787l-40.6868 -19.337128l21.349655 -21.349655zm-126.9765 -74.37807l0 0c0 -29.049301 23.549118 -52.59842 52.598434 -52.59842c29.049301 0 52.59842 23.549118 52.59842 52.59842c0 29.049316 -23.549118 52.598434 -52.59842 52.598434c-29.049316 0 -52.598434 -23.549118 -52.598434 -52.598434z" fill-rule="evenodd"/><defs><linearGradient id="p.1" gradientUnits="userSpaceOnUse" gradientTransform="matrix(10.83889419163031 0.0 0.0 10.83889419163031 0.0 0.0)" spreadMethod="pad" x1="0.4606144667443155" y1="9.820031205920037" x2="0.4605752410150255" y2="20.65892539747937"><stop offset="0.0" stop-color="#ffffff"/><stop offset="1.0" stop-color="#b3b3b3"/></linearGradient></defs><path fill="url(#p.1)" d="m18.902931 145.11923l0 0c-1.230978 -9.472794 2.810566 -18.85028 10.409653 -24.153252c7.5990868 -5.3029785 17.423004 -5.6014023 25.303097 -0.76865387l0 0c2.7913704 -5.5078735 7.9003944 -9.310684 13.781689 -10.258148c5.8812943 -0.947464 11.844078 1.0716934 16.084732 5.446724l0 0c2.377884 -4.9937897 7.046913 -8.348984 12.350258 -8.874977c5.3033524 -0.5259857 10.490471 1.851654 13.720703 6.2892303l0 0c4.2960052 -5.2934036 11.13105 -7.522148 17.547585 -5.72184c6.4165344 1.8003082 11.26207 7.3063126 12.439941 14.135544l0 0c5.263336 1.5033493 9.647583 5.3250656 12.019989 10.477745c2.372406 5.152664 2.5002594 11.130829 0.35050964 16.389923l0 0c5.182846 7.0635223 6.395233 16.475586 3.1847382 24.723785c-3.210495 8.248184 -10.361542 14.093292 -18.7845 15.35405c-0.05937195 7.741211 -4.113739 14.844467 -10.600388 18.571854c-6.486641 3.7273712 -14.392647 3.4968262 -20.670692 -0.60276794c-2.674118 9.271454 -10.200859 16.093307 -19.328392 17.51825c-9.127533 1.4249573 -18.219574 -2.8024445 -23.348019 -10.855789c-6.2864037 3.969513 -13.829567 5.1130066 -20.927902 3.1725311c-7.0983315 -1.9404907 -13.15391 -6.8014984 -16.800716 -13.486465l0 0c-6.423914 0.7871704 -12.634953 -2.697998 -15.550598 -8.72583c-2.9156456 -6.027832 -1.9152269 -13.31514 2.5047522 -18.24527l0 0c-5.730299 -3.5317078 -8.6542425 -10.539795 -7.24711 -17.369812c1.4071331 -6.830002 6.8264813 -11.93425 13.432068 -12.651062z" fill-rule="evenodd"/><path fill="#000000" fill-opacity="0.0" d="m12.590992 175.5052l0 0c2.7041454 1.666626 5.828068 2.422638 8.952328 2.1665497m4.0921116 24.805145c1.3435478 -0.16464233 2.6604786 -0.51327515 3.916832 -1.0369263m33.809906 11.350433c-0.94496536 -1.483902 -1.7361374 -3.06958 -2.360035 -4.7300262m45.03808 -1.9327087l0 0c0.48752594 -1.6903229 0.80340576 -3.4300385 0.9423599 -5.1901093m30.327545 -12.778336c0.063201904 -8.2417145 -4.4071503 -15.787933 -11.490913 -19.397308m27.090508 -20.679657c-1.1471863 2.8064575 -2.8984985 5.296036 -5.116623 7.273529m-7.2527924 -34.14193l0 0c0.19546509 1.133316 0.28593445 2.283661 0.27012634 3.4350967m-30.257141 -11.848457l0 0c-1.07164 1.3204422 -1.9545288 2.7960205 -2.6211777 4.380783m-23.450027 -1.7956085l0 0c-0.5710983 1.1993484 -0.99755096 2.46846 -1.2695389 3.7781067m-28.597317 1.0334091l0 0c1.6674194 1.0226059 3.2100143 2.2534256 4.593891 3.665413m-40.306183 21.25663l0 0c0.16966057 1.305603 0.4377327 2.5950928 0.8017082 3.85643" fill-rule="evenodd"/><path stroke="#000000" stroke-width="2.0" stroke-linejoin="round" stroke-linecap="butt" d="m18.902931 145.11923l0 0c-1.230978 -9.472794 2.810566 -18.85028 10.409653 -24.153252c7.5990868 -5.3029785 17.423004 -5.6014023 25.303097 -0.76865387l0 0c2.7913704 -5.5078735 7.9003944 -9.310684 13.781689 -10.258148c5.8812943 -0.947464 11.844078 1.0716934 16.084732 5.446724l0 0c2.377884 -4.9937897 7.046913 -8.348984 12.350258 -8.874977c5.3033524 -0.5259857 10.490471 1.851654 13.720703 6.2892303l0 0c4.2960052 -5.2934036 11.13105 -7.522148 17.547585 -5.72184c6.4165344 1.8003082 11.26207 7.3063126 12.439941 14.135544l0 0c5.263336 1.5033493 9.647583 5.3250656 12.019989 10.477745c2.372406 5.152664 2.5002594 11.130829 0.35050964 16.389923l0 0c5.182846 7.0635223 6.395233 16.475586 3.1847382 24.723785c-3.210495 8.248184 -10.361542 14.093292 -18.7845 15.35405c-0.05937195 7.741211 -4.113739 14.844467 -10.600388 18.571854c-6.486641 3.7273712 -14.392647 3.4968262 -20.670692 -0.60276794c-2.674118 9.271454 -10.200859 16.093307 -19.328392 17.51825c-9.127533 1.4249573 -18.219574 -2.8024445 -23.348019 -10.855789c-6.2864037 3.969513 -13.829567 5.1130066 -20.927902 3.1725311c-7.0983315 -1.9404907 -13.15391 -6.8014984 -16.800716 -13.486465l0 0c-6.423914 0.7871704 -12.634953 -2.697998 -15.550598 -8.72583c-2.9156456 -6.027832 -1.9152269 -13.31514 2.5047522 -18.24527l0 0c-5.730299 -3.5317078 -8.6542425 -10.539795 -7.24711 -17.369812c1.4071331 -6.830002 6.8264813 -11.93425 13.432068 -12.651062z" fill-rule="evenodd"/><path stroke="#000000" stroke-width="2.0" stroke-linejoin="round" stroke-linecap="butt" d="m12.590992 175.5052l0 0c2.7041454 1.666626 5.828068 2.422638 8.952328 2.1665497m4.0921116 24.805145c1.3435478 -0.16464233 2.6604786 -0.51327515 3.916832 -1.0369263m33.809906 11.350433c-0.94496536 -1.483902 -1.7361374 -3.06958 -2.360035 -4.7300262m45.03808 -1.9327087l0 0c0.48752594 -1.6903229 0.80340576 -3.4300385 0.9423599 -5.1901093m30.327545 -12.778336c0.063201904 -8.2417145 -4.4071503 -15.787933 -11.490913 -19.397308m27.090508 -20.679657c-1.1471863 2.8064575 -2.8984985 5.296036 -5.116623 7.273529m-7.2527924 -34.14193l0 0c0.19546509 1.133316 0.28593445 2.283661 0.27012634 3.4350967m-30.257141 -11.848457l0 0c-1.07164 1.3204422 -1.9545288 2.7960205 -2.6211777 4.380783m-23.450027 -1.7956085l0 0c-0.5710983 1.1993484 -0.99755096 2.46846 -1.2695389 3.7781067m-28.597317 1.0334091l0 0c1.6674194 1.0226059 3.2100143 2.2534256 4.593891 3.665413m-40.306183 21.25663l0 0c0.16966057 1.305603 0.4377327 2.5950928 0.8017082 3.85643" fill-rule="evenodd"/></g></svg>