<svg version="1.1" viewBox="0.0 0.0 269.16010498687666 268.0236220472441" fill="none" stroke="none" stroke-linecap="square" stroke-miterlimit="10" xmlns:xlink="http://www.w3.org/1999/xlink" xmlns="http://www.w3.org/2000/svg"><clipPath id="p.0"><path d="m0 0l269.1601 0l0 268.02362l-269.1601 0l0 -268.02362z" clip-rule="nonzero"/></clipPath><g clip-path="url(#p.0)"><path fill="#000000" fill-opacity="0.0" d="m0 0l269.1601 0l0 268.02362l-269.1601 0z" fill-rule="evenodd"/><defs><linearGradient id="p.1" gradientUnits="userSpaceOnUse" gradientTransform="matrix(12.72628546217059 0.0 0.0 12.72628546217059 0.0 0.0)" spreadMethod="pad" x1="2.292683506274736" y1="0.2380142551761809" x2="2.2926373841942427" y2="12.964299717263193"><stop offset="0.0" stop-color="#bfbfbf"/><stop offset="1.0" stop-color="#737373"/></linearGradient></defs><path fill="url(#p.1)" d="m48.352283 56.35401l0 0c-1.6968536 -13.059048 3.87426 -25.986708 14.349319 -33.297302c10.475056 -7.3105965 24.016956 -7.722007 34.879375 -1.0596542l0 0c3.8478012 -7.59307 10.890396 -12.835561 18.997543 -14.141722c8.10714 -1.3061604 16.326614 1.4774232 22.172195 7.5087724l0 0c3.277832 -6.884366 9.713913 -11.509781 17.024384 -12.234905c7.3104706 -0.7251251 14.460724 2.5526617 18.913467 8.670232l0 0c5.921875 -7.29741 15.343735 -10.369924 24.18869 -7.888046c8.84494 2.4818778 15.524353 10.072378 17.147995 19.487051l0 0c7.25531 2.0724945 13.298828 7.341053 16.569107 14.444448c3.270279 7.1033936 3.4465027 15.344795 0.4831543 22.59489l0 0c7.1443634 9.737671 8.815613 22.713005 4.3900604 34.08383c-4.4255524 11.370827 -14.283005 19.42881 -25.893738 21.166855c-0.081832886 10.671928 -5.670639 20.464355 -14.612244 25.60286c-8.941589 5.138504 -19.839722 4.820694 -28.493774 -0.8309479c-3.6861725 12.781479 -14.061493 22.185974 -26.643463 24.15039c-12.58197 1.9644165 -25.115005 -3.8634033 -32.18438 -14.965637c-8.665573 5.4723206 -19.063538 7.0487366 -28.848328 4.3736115c-9.78479 -2.6751251 -18.132175 -9.376434 -23.15916 -18.59224l0 0c-8.855129 1.0851898 -17.416813 -3.7194061 -21.43592 -12.029282c-4.019108 -8.3098755 -2.640068 -18.356049 3.4527092 -25.152649l0 0c-7.899004 -4.868759 -11.929552 -14.529991 -9.989872 -23.945747c1.9396801 -9.415756 9.410049 -16.452385 18.515606 -17.440567z" fill-rule="evenodd"/><path fill="#000000" fill-opacity="0.0" d="m39.651512 98.24364l0 0c3.727562 2.2975845 8.0337715 3.3398209 12.34045 2.9867783m5.6408234 34.195976c1.8520279 -0.22695923 3.6673698 -0.70758057 5.3992043 -1.4294739m46.605698 15.647522c-1.302597 -2.0456848 -2.3932037 -4.2316895 -3.2532196 -6.5207367m62.083305 -2.6643982l0 0c0.67204285 -2.3302612 1.1074677 -4.728592 1.2990112 -7.154999m41.805374 -17.616028c0.087127686 -11.361908 -6.0750732 -21.764992 -15.839783 -26.740822m37.34326 -28.508663c-1.5813599 3.868946 -3.9954834 7.301029 -7.0530853 10.027164m-9.997696 -47.06752l0 0c0.2694397 1.5623665 0.39414978 3.1482162 0.3723755 4.735567m-41.70836 -16.3341l0 0c-1.4772186 1.8203421 -2.6942444 3.8545494 -3.6131897 6.0392838m-32.324997 -2.4754047l0 0c-0.78723145 1.6534023 -1.3750763 3.4029846 -1.7500153 5.2084446m-39.420326 1.4246426l0 0c2.2984772 1.4097481 4.4248886 3.106533 6.3325043 5.0530796m-55.560566 29.304062l0 0c0.23387146 1.7998734 0.60339737 3.5775566 1.1051254 5.316414" fill-rule="evenodd"/><path stroke="#000000" stroke-width="2.0" stroke-linejoin="round" stroke-linecap="butt" d="m48.352283 56.35401l0 0c-1.6968536 -13.059048 3.87426 -25.986708 14.349319 -33.297302c10.475056 -7.3105965 24.016956 -7.722007 34.879375 -1.0596542l0 0c3.8478012 -7.59307 10.890396 -12.835561 18.997543 -14.141722c8.10714 -1.3061604 16.326614 1.4774232 22.172195 7.5087724l0 0c3.277832 -6.884366 9.713913 -11.509781 17.024384 -12.234905c7.3104706 -0.7251251 14.460724 2.5526617 18.913467 8.670232l0 0c5.921875 -7.29741 15.343735 -10.369924 24.18869 -7.888046c8.84494 2.4818778 15.524353 10.072378 17.147995 19.487051l0 0c7.25531 2.0724945 13.298828 7.341053 16.569107 14.444448c3.270279 7.1033936 3.4465027 15.344795 0.4831543 22.59489l0 0c7.1443634 9.737671 8.815613 22.713005 4.3900604 34.08383c-4.4255524 11.370827 -14.283005 19.42881 -25.893738 21.166855c-0.081832886 10.671928 -5.670639 20.464355 -14.612244 25.60286c-8.941589 5.138504 -19.839722 4.820694 -28.493774 -0.8309479c-3.6861725 12.781479 -14.061493 22.185974 -26.643463 24.15039c-12.58197 1.9644165 -25.115005 -3.8634033 -32.18438 -14.965637c-8.665573 5.4723206 -19.063538 7.0487366 -28.848328 4.3736115c-9.78479 -2.6751251 -18.132175 -9.376434 -23.15916 -18.59224l0 0c-8.855129 1.0851898 -17.416813 -3.7194061 -21.43592 -12.029282c-4.019108 -8.3098755 -2.640068 -18.356049 3.4527092 -25.152649l0 0c-7.899004 -4.868759 -11.929552 -14.529991 -9.989872 -23.945747c1.9396801 -9.415756 9.410049 -16.452385 18.515606 -17.440567z" fill-rule="evenodd"/><path stroke="#000000" stroke-width="2.0" stroke-linejoin="round" stroke-linecap="butt" d="m39.651512 98.24364l0 0c3.727562 2.2975845 8.0337715 3.3398209 12.34045 2.9867783m5.6408234 34.195976c1.8520279 -0.22695923 3.6673698 -0.70758057 5.3992043 -1.4294739m46.605698 15.647522c-1.302597 -2.0456848 -2.3932037 -4.2316895 -3.2532196 -6.5207367m62.083305 -2.6643982l0 0c0.67204285 -2.3302612 1.1074677 -4.728592 1.2990112 -7.154999m41.805374 -17.616028c0.087127686 -11.361908 -6.0750732 -21.764992 -15.839783 -26.740822m37.34326 -28.508663c-1.5813599 3.868946 -3.9954834 7.301029 -7.0530853 10.027164m-9.997696 -47.06752l0 0c0.2694397 1.5623665 0.39414978 3.1482162 0.3723755 4.735567m-41.70836 -16.3341l0 0c-1.4772186 1.8203421 -2.6942444 3.8545494 -3.6131897 6.0392838m-32.324997 -2.4754047l0 0c-0.78723145 1.6534023 -1.3750763 3.4029846 -1.7500153 5.2084446m-39.420326 1.4246426l0 0c2.2984772 1.4097481 4.4248886 3.106533 6.3325043 5.0530796m-55.560566 29.304062l0 0c0.23387146 1.7998734 0.60339737 3.5775566 1.1051254 5.316414" fill-rule="evenodd"/><defs><linearGradient id="p.2" gradientUnits="userSpaceOnUse" gradientTransform="matrix(3.800744400179453 -2.6413430118702004 2.6413430118702004 3.800744400179453 0.0 0.0)" spreadMethod="pad" x1="-9.01229587646486" y1="41.24396525262972" x2="-9.012309167314504" y2="45.04470965278594"><stop offset="0.0" stop-color="#dfe9fb"/><stop offset="1.0" stop-color="#6e9be7"/></linearGradient></defs><path fill="url(#p.2)" d="m79.95344 188.14185l0 0c-2.635315 -3.7920685 -1.6975784 -9.002487 2.09449 -11.637802q3.7897263 -2.6336823 7.0837326 -5.9806976q1.920372 4.2854614 4.554062 8.075195l0 0c2.6353073 3.7920532 1.6975784 9.002472 -2.09449 11.637787l0 0c-3.7920685 2.635315 -9.002487 1.697586 -11.6377945 -2.0944824z" fill-rule="evenodd"/><path stroke="#000000" stroke-width="1.0" stroke-linejoin="round" stroke-linecap="butt" d="m79.95344 188.14185l0 0c-2.635315 -3.7920685 -1.6975784 -9.002487 2.09449 -11.637802q3.7897263 -2.6336823 7.0837326 -5.9806976q1.920372 4.2854614 4.554062 8.075195l0 0c2.6353073 3.7920532 1.6975784 9.002472 -2.09449 11.637787l0 0c-3.7920685 2.635315 -9.002487 1.697586 -11.6377945 -2.0944824z" fill-rule="evenodd"/><defs><linearGradient id="p.3" gradientUnits="userSpaceOnUse" gradientTransform="matrix(3.8268064716050607 -2.5454323590862957 2.5454323590862957 3.8268064716050607 0.0 0.0)" spreadMethod="pad" x1="-3.34580386203442" y1="63.33257389222064" x2="-3.3458178042037034" y2="67.1593803638003"><stop offset="0.0" stop-color="#dfe9fb"/><stop offset="1.0" stop-color="#6e9be7"/></linearGradient></defs><path fill="url(#p.3)" d="m153.516 258.56186l0 0c-2.5570374 -3.8442535 -1.5135498 -9.033524 2.3307037 -11.590561q3.8418884 -2.5554657 7.202774 -5.8340607q1.8323212 4.322891 4.3877716 8.164764l0 0c2.5570374 3.8442535 1.5135498 9.033508 -2.3307037 11.590546l0 0c-3.8442535 2.5570374 -9.033508 1.5135498 -11.590546 -2.3306885z" fill-rule="evenodd"/><path stroke="#000000" stroke-width="1.0" stroke-linejoin="round" stroke-linecap="butt" d="m153.516 258.56186l0 0c-2.5570374 -3.8442535 -1.5135498 -9.033524 2.3307037 -11.590561q3.8418884 -2.5554657 7.202774 -5.8340607q1.8323212 4.322891 4.3877716 8.164764l0 0c2.5570374 3.8442535 1.5135498 9.033508 -2.3307037 11.590546l0 0c-3.8442535 2.5570374 -9.033508 1.5135498 -11.590546 -2.3306885z" fill-rule="evenodd"/><defs><linearGradient id="p.4" gradientUnits="userSpaceOnUse" gradientTransform="matrix(3.8007444001278112 -2.64134301205471 2.64134301205471 3.8007444001278112 0.0 0.0)" spreadMethod="pad" x1="7.638643370388545" y1="50.88477543993245" x2="7.638630079538901" y2="54.685519840037024"><stop offset="0.0" stop-color="#dfe9fb"/><stop offset="1.0" stop-color="#6e9be7"/></linearGradient></defs><path fill="url(#p.4)" d="m168.70409 180.80325l0 0c-2.6352997 -3.7920532 -1.6975708 -9.002472 2.0944977 -11.637787q3.789734 -2.6336975 7.08374 -5.980713q1.9203644 4.2854614 4.5540466 8.075195l0 0c2.635315 3.7920685 1.697586 9.002487 -2.0944824 11.637802l0 0c-3.7920685 2.635315 -9.002487 1.6975708 -11.637802 -2.0944977z" fill-rule="evenodd"/><path stroke="#000000" stroke-width="1.0" stroke-linejoin="round" stroke-linecap="butt" d="m168.70409 180.80325l0 0c-2.6352997 -3.7920532 -1.6975708 -9.002472 2.0944977 -11.637787q3.789734 -2.6336975 7.08374 -5.980713q1.9203644 4.2854614 4.5540466 8.075195l0 0c2.635315 3.7920685 1.697586 9.002487 -2.0944824 11.637802l0 0c-3.7920685 2.635315 -9.002487 1.6975708 -11.637802 -2.0944977z" fill-rule="evenodd"/><defs><linearGradient id="p.5" gradientUnits="userSpaceOnUse" gradientTransform="matrix(3.8007466152687734 -2.6413445514760663 2.6413445514760663 3.8007466152687734 0.0 0.0)" spreadMethod="pad" x1="-10.871496656235006" y1="53.46558804478673" x2="-10.871509947076904" y2="57.266334660032264"><stop offset="0.0" stop-color="#dfe9fb"/><stop offset="1.0" stop-color="#6e9be7"/></linearGradient></defs><path fill="url(#p.5)" d="m105.16866 239.50404l0 0c-2.635315 -3.7920685 -1.6975784 -9.002487 2.0944824 -11.637787q3.789734 -2.6336975 7.08374 -5.980713q1.9203644 4.2854614 4.5540543 8.075195l0 0c2.635315 3.7920685 1.6975784 9.002487 -2.0944824 11.637802l0 0c-3.7920685 2.6352997 -9.002487 1.6975708 -11.6377945 -2.0944977z" fill-rule="evenodd"/><path stroke="#000000" stroke-width="1.0" stroke-linejoin="round" stroke-linecap="butt" d="m105.16866 239.50404l0 0c-2.635315 -3.7920685 -1.6975784 -9.002487 2.0944824 -11.637787q3.789734 -2.6336975 7.08374 -5.980713q1.9203644 4.2854614 4.5540543 8.075195l0 0c2.635315 3.7920685 1.6975784 9.002487 -2.0944824 11.637802l0 0c-3.7920685 2.6352997 -9.002487 1.6975708 -11.6377945 -2.0944977z" fill-rule="evenodd"/><defs><linearGradient id="p.6" gradientUnits="userSpaceOnUse" gradientTransform="matrix(3.800744400179453 -2.6413430118702004 2.6413430118702004 3.800744400179453 0.0 0.0)" spreadMethod="pad" x1="-21.275334213116412" y1="50.07775948052115" x2="-21.275347503966056" y2="53.87850388067737"><stop offset="0.0" stop-color="#dfe9fb"/><stop offset="1.0" stop-color="#6e9be7"/></linearGradient></defs><path fill="url(#p.6)" d="m56.677845 254.10773l0 0c-2.6353111 -3.7920685 -1.6975746 -9.002487 2.09449 -11.637802q3.78973 -2.6336823 7.0837364 -5.9806976q1.9203644 4.2854614 4.554062 8.075195l0 0c2.6353073 3.7920532 1.6975708 9.002472 -2.09449 11.637787l0 0c-3.7920685 2.635315 -9.002487 1.6975708 -11.637798 -2.0944824z" fill-rule="evenodd"/><path stroke="#000000" stroke-width="1.0" stroke-linejoin="round" stroke-linecap="butt" d="m56.677845 254.10773l0 0c-2.6353111 -3.7920685 -1.6975746 -9.002487 2.09449 -11.637802q3.78973 -2.6336823 7.0837364 -5.9806976q1.9203644 4.2854614 4.554062 8.075195l0 0c2.6353073 3.7920532 1.6975708 9.002472 -2.09449 11.637787l0 0c-3.7920685 2.635315 -9.002487 1.6975708 -11.637798 -2.0944824z" fill-rule="evenodd"/><defs><linearGradient id="p.7" gradientUnits="userSpaceOnUse" gradientTransform="matrix(3.8007444001286115 -2.641343012055266 2.641343012055266 3.8007444001286115 0.0 0.0)" spreadMethod="pad" x1="0.4175252230788888" y1="50.163139897942294" x2="0.41751148227860596" y2="53.96388429804607"><stop offset="0.0" stop-color="#dfe9fb"/><stop offset="1.0" stop-color="#6e9be7"/></linearGradient></defs><path fill="url(#p.7)" d="m139.35239 197.13397l0 0c-2.635315 -3.7920685 -1.6975708 -9.002487 2.0944824 -11.637802q3.789734 -2.6336823 7.08374 -5.9806976q1.9203644 4.2854614 4.554062 8.075195l0 0c2.635315 3.7920532 1.6975708 9.002472 -2.0944824 11.637787l0 0c-3.7920685 2.635315 -9.002487 1.697586 -11.637802 -2.0944824z" fill-rule="evenodd"/><path stroke="#000000" stroke-width="1.0" stroke-linejoin="round" stroke-linecap="butt" d="m139.35239 197.13397l0 0c-2.635315 -3.7920685 -1.6975708 -9.002487 2.0944824 -11.637802q3.789734 -2.6336823 7.08374 -5.9806976q1.9203644 4.2854614 4.554062 8.075195l0 0c2.635315 3.7920532 1.6975708 9.002472 -2.0944824 11.637787l0 0c-3.7920685 2.635315 -9.002487 1.697586 -11.637802 -2.0944824z" fill-rule="evenodd"/></g></svg>