<svg version="1.1" viewBox="0.0 0.0 268.8320209973753 266.9133858267717" fill="none" stroke="none" stroke-linecap="square" stroke-miterlimit="10" xmlns:xlink="http://www.w3.org/1999/xlink" xmlns="http://www.w3.org/2000/svg"><clipPath id="p.0"><path d="m0 0l268.83203 0l0 266.9134l-268.83203 0l0 -266.9134z" clip-rule="nonzero"/></clipPath><g clip-path="url(#p.0)"><path fill="#000000" fill-opacity="0.0" d="m0 0l268.83203 0l0 266.9134l-268.83203 0z" fill-rule="evenodd"/><path fill="#ffd966" d="m264.5585 133.4567l-52.51761 18.676498l0 -37.352997zm-38.12671 -92.02708l-23.92247 50.346725l-26.412216 -26.412209zm-92.01503 -38.11466l18.676498 52.517597l-37.352997 0zm-92.02708 38.11466l50.346725 23.934517l-26.4122 26.412209zm-38.114655 92.02708l52.517597 -18.676498l0 37.352997zm38.114655 92.015015l23.934525 -50.33467l26.4122 26.4122zm92.02708 38.12671l-18.676498 -52.517593l37.352997 0zm92.01503 -38.12671l-50.334686 -23.92247l26.412216 -26.4122zm-157.0859 -92.015015l0 0c0 -35.937653 29.133224 -65.07087 65.07087 -65.07087c35.937653 0 65.07086 29.133217 65.07086 65.07087c0 35.937637 -29.13321 65.07086 -65.07086 65.07086c-35.937645 0 -65.07087 -29.133224 -65.07087 -65.07086z" fill-rule="evenodd"/><path stroke="#000000" stroke-width="2.0" stroke-linejoin="round" stroke-linecap="butt" d="m264.5585 133.4567l-52.51761 18.676498l0 -37.352997zm-38.12671 -92.02708l-23.92247 50.346725l-26.412216 -26.412209zm-92.01503 -38.11466l18.676498 52.517597l-37.352997 0zm-92.02708 38.11466l50.346725 23.934517l-26.4122 26.412209zm-38.114655 92.02708l52.517597 -18.676498l0 37.352997zm38.114655 92.015015l23.934525 -50.33467l26.4122 26.4122zm92.02708 38.12671l-18.676498 -52.517593l37.352997 0zm92.01503 -38.12671l-50.334686 -23.92247l26.412216 -26.4122zm-157.0859 -92.015015l0 0c0 -35.937653 29.133224 -65.07087 65.07087 -65.07087c35.937653 0 65.07086 29.133217 65.07086 65.07087c0 35.937637 -29.13321 65.07086 -65.07086 65.07086c-35.937645 0 -65.07087 -29.133224 -65.07087 -65.07086z" fill-rule="evenodd"/></g></svg>